{"title":"Sleepaway Camp 3 Teenage Wasteland (1989) fiveofseven zombiRG","uid":15343481,"size":633704047,"categoryP":"video","categoryS":"movies","magnet":"?xt=urn:btih:1a075f559dce25a48ff10204c571756468156c7b&amp;dn=Sleepaway+Camp+3+Teenage+Wasteland+%281989%29+fiveofseven+zombiRG&amp;tr=udp%3A%2F%2Ftracker.leechers-paradise.org%3A6969&amp;tr=udp%3A%2F%2Fzer0day.ch%3A1337&amp;tr=udp%3A%2F%2Fopen.demonii.com%3A1337&amp;tr=udp%3A%2F%2Ftracker.coppersurfer.tk%3A6969&amp;tr=udp%3A%2F%2Fexodus.desync.com%3A6969","seeders":4,"leechers":1,"uploader":"fiveofseven","files":3,"time":1468868582,"description":"\nPLOT - After murdering a young girl, Angela Baker assumes her \r\nidentity and travels to Camp New Horizons, built on the grounds \r\nof the camp she terrorized the year before, and starts killing again.\r\n\r\n\r\nINFO\r\n\r\nEncoder: fiveofseven\r\nSource: Blu-Ray\r\nRating: R\r\nGenre: Comedy, Horror\r\nSubtitles: English\r\nPoster: \r  https://yuq.me/users/25/564/DPeEF9snNv.jpg \r\n\r\nGeneral\r\nComplete name                            : Sleepaway Camp 3 Teenage Wasteland (fiveofseven zombiRG).mp4\r\nFormat                                   : MPEG-4\r\nCodec ID                                 : M4V \r\nFile size                                : 600 MiB\r\nDuration                                 : 1h 19mn\r\nOverall bit rate mode                    : Variable\r\nOverall bit rate                         : 1 055 Kbps\r\nEncoded date                             : UTC 2016-06-05 02:33:15\r\nTagged date                              : UTC 2016-06-07 12:55:51\r\nWriting application                      : My MP4Box GUI 0.6.0.6 &lt;http://my-mp4box-gui.zymichost.com&gt;\r\n\r\nVideo\r\nID                                       : 1\r\nFormat                                   : AVC\r\nFormat/Info                              : Advanced Video Codec\r\nFormat profile                           :   \r\nFormat settings, CABAC                   : Yes\r\nFormat settings, ReFrames                : 6 frames\r\nCodec ID                                 : avc1\r\nCodec ID/Info                            : Advanced Video Coding\r\nDuration                                 : 1h 19mn\r\nBit rate                                 : 924 Kbps\r\nMaximum bit rate                         : 4 553 Kbps\r\nWidth                                    : 720 pixels\r\nHeight                                   : 392 pixels\r\nDisplay aspect ratio                     : 1.85:1\r\nFrame rate mode                          : Constant\r\nFrame rate                               : 23.976 fps\r\nColor space                              : YUV\r\nChroma subsampling                       : 4:2:0\r\nBit depth                                : 8 bits\r\nScan type                                : Progressive\r\nBits/(Pixel*Frame)                       : 0.137\r\nStream size                              : 525 MiB (87%)\r\nTitle                                    : SC3 480p.mp4\r\nWriting library                          : x264 core 148 r2638 7599210\r\nLanguage                                 : English\r\nEncoded date                             : UTC 2016-06-05 02:24:20\r\nTagged date                              : UTC 2016-06-05 02:33:43\r\n\r\nAudio\r\nID                                       : 2\r\nFormat                                   : AAC\r\nFormat/Info                              : Advanced Audio Codec\r\nFormat profile                           : LC\r\nCodec ID                                 : 40\r\nDuration                                 : 1h 19mn\r\nBit rate mode                            : Variable\r\nBit rate                                 : 128 Kbps\r\nMaximum bit rate                         : 135 Kbps\r\nChannel count                            : 2 channels\r\nChannel positions                        : Front: L R\r\nSampling rate                            : 48.0 KHz\r\nCompression mode                         : Lossy\r\nDelay relative to video                  : 83ms\r\nStream size                              : 72.7 MiB (12%)\r\nTitle                                    : aac.mp4\r\nLanguage                                 : English\r\nEncoded date                             : UTC 2016-06-05 02:33:31\r\nTagged date                              : UTC 2016-06-05 02:33:43\r\n\r\n\r\nScreenshots - \r\n  \nhttps://yuq.me/users/25/564/bRxviUcaWo.jpg \r\n  \nhttps://yuq.me/users/25/564/JbwiDpuRfT.jpg \r\n  \nhttps://yuq.me/users/25/564/LgXEzN4VyQ.jpg \r\n  \nhttps://yuq.me/users/25/564/EGkYd2JQZV.jpg \r\n \r\nsignature \r\n  \nhttps://yuq.me/users/25/564/aegRQCBILx.png","torrent":{"xt":"urn:btih:1a075f559dce25a48ff10204c571756468156c7b","amp;dn":"Sleepaway+Camp+3+Teenage+Wasteland+%281989%29+fiveofseven+zombiRG","amp;tr":["udp%3A%2F%2Ftracker.leechers-paradise.org%3A6969","udp%3A%2F%2Fzer0day.ch%3A1337","udp%3A%2F%2Fopen.demonii.com%3A1337","udp%3A%2F%2Ftracker.coppersurfer.tk%3A6969","udp%3A%2F%2Fexodus.desync.com%3A6969"],"infoHash":"1a075f559dce25a48ff10204c571756468156c7b","infoHashBuffer":{"type":"Buffer","data":[26,7,95,85,157,206,37,164,143,241,2,4,197,113,117,100,104,21,108,123]},"announce":[],"urlList":[]}}